<svg width="326" height="152" viewBox="0 0 326 152" fill="none" xmlns="http://www.w3.org/2000/svg">
<path d="M86.2639 103.03C101.083 122.809 86.9699 151.018 62.255 151.018C52.8071 151.018 43.9112 146.568 38.2461 139.007L5.9932 95.9599C-3.94162 82.7002 -1.24635 63.8973 12.0133 53.9624C25.273 44.0275 44.0761 46.7228 54.0109 59.9826L86.2639 103.03Z" fill="#B82C2C"/>
<path d="M186.228 103.03C201.047 122.809 186.934 151.018 162.22 151.018C152.772 151.018 143.876 146.568 138.211 139.007L70.0163 47.9897C60.0817 34.7303 62.7769 15.9278 76.0364 5.9931C89.2958 -3.94156 108.098 -1.24632 118.033 12.0131L186.228 103.03Z" fill="#B82C2C"/>
<path d="M238.981 103.048C224.162 122.827 238.275 151.037 262.99 151.037C272.438 151.037 281.334 146.586 286.999 139.025L319.252 95.978C329.187 82.7183 326.491 63.9154 313.232 53.9805C299.972 44.0456 281.169 46.7409 271.234 60.0007L238.981 103.048Z" fill="#B82C2C"/>
<path d="M139.017 103.048C124.198 122.827 138.311 151.037 163.025 151.037C172.473 151.037 181.369 146.586 187.034 139.025L255.229 48.0078C265.163 34.7484 262.468 15.9459 249.209 6.0112C235.949 -3.92346 217.147 -1.22821 207.212 12.0312L139.017 103.048Z" fill="#B82C2C"/>
</svg>
